<?xml version="1.0" encoding="UTF-8" standalone="no"?>
<!DOCTYPE svg PUBLIC "-//W3C//DTD SVG 1.1//EN"
 "http://www.w3.org/Graphics/SVG/1.1/DTD/svg11.dtd">
<!-- Generated by graphviz version 2.40.1 (20161225.0304)
 -->
<!-- Title: dependencies Pages: 1 -->
<svg width="757pt" height="211pt"
 viewBox="0.00 0.00 757.00 211.00" xmlns="http://www.w3.org/2000/svg" xmlns:xlink="http://www.w3.org/1999/xlink">
<g id="graph0" class="graph" transform="scale(1 1) rotate(0) translate(4 207)">
<title>dependencies</title>
<polygon fill="#ffffff" stroke="transparent" points="-4,4 -4,-207 753,-207 753,4 -4,4"/>
<text text-anchor="start" x="353.5091" y="-42.4" font-family="sans-serif" font-weight="bold" font-size="14.00" fill="#000000">Legend</text>
<polygon fill="#ffffb3" stroke="transparent" points="140.5,-10 140.5,-30 160.5,-30 160.5,-10 140.5,-10"/>
<text text-anchor="start" x="164.129" y="-15.4" font-family="sans-serif" font-size="14.00" fill="#000000"> &#160;Declarations</text>
<polygon fill="#8dd3c7" stroke="transparent" points="253.5,-10 253.5,-30 273.5,-30 273.5,-10 253.5,-10"/>
<text text-anchor="start" x="277.2251" y="-15.4" font-family="sans-serif" font-size="14.00" fill="#000000"> &#160;Module</text>
<polygon fill="#80b1d3" stroke="transparent" points="339.5,-10 339.5,-30 359.5,-30 359.5,-10 339.5,-10"/>
<text text-anchor="start" x="363.2812" y="-15.4" font-family="sans-serif" font-size="14.00" fill="#000000"> &#160;Bootstrap</text>
<polygon fill="#fdb462" stroke="transparent" points="436.5,-10 436.5,-30 456.5,-30 456.5,-10 436.5,-10"/>
<text text-anchor="start" x="460.1732" y="-15.4" font-family="sans-serif" font-size="14.00" fill="#000000"> &#160;Providers</text>
<polygon fill="#fb8072" stroke="transparent" points="532.5,-10 532.5,-30 552.5,-30 552.5,-10 532.5,-10"/>
<text text-anchor="start" x="556.2258" y="-15.4" font-family="sans-serif" font-size="14.00" fill="#000000"> &#160;Exports</text>
<g id="clust1" class="cluster">
<title>cluster_TasksModule</title>
<polygon fill="none" stroke="#000000" stroke-dasharray="1,5" points="8,-70 8,-195 741,-195 741,-70 8,-70"/>
</g>
<g id="clust2" class="cluster">
<title>cluster_TasksModule_declarations</title>
<polygon fill="none" stroke="#000000" points="603,-78 603,-130 733,-130 733,-78 603,-78"/>
</g>
<g id="clust4" class="cluster">
<title>cluster_TasksModule_imports</title>
<polygon fill="none" stroke="#000000" points="16,-78 16,-130 595,-130 595,-78 16,-78"/>
</g>
<!-- TasksComponent -->
<g id="node1" class="node">
<title>TasksComponent</title>
<polygon fill="#ffffb3" stroke="#000000" points="724.9888,-122 611.0112,-122 611.0112,-86 724.9888,-86 724.9888,-122"/>
<text text-anchor="middle" x="668" y="-99.8" font-family="Times,serif" font-size="14.00" fill="#000000">TasksComponent</text>
</g>
<!-- TasksModule -->
<g id="node2" class="node">
<title>TasksModule</title>
<polygon fill="#8dd3c7" stroke="#000000" points="436.2064,-187 433.2064,-191 412.2064,-191 409.2064,-187 343.7936,-187 343.7936,-151 436.2064,-151 436.2064,-187"/>
<text text-anchor="middle" x="390" y="-164.8" font-family="Times,serif" font-size="14.00" fill="#000000">TasksModule</text>
</g>
<!-- TasksComponent&#45;&gt;TasksModule -->
<g id="edge1" class="edge">
<title>TasksComponent&#45;&gt;TasksModule</title>
<path fill="none" stroke="#000000" d="M668,-122.2843C668,-143.3211 668,-175 668,-175 668,-175 446.2181,-175 446.2181,-175"/>
<polygon fill="#000000" stroke="#000000" points="446.2181,-171.5001 436.2181,-175 446.2181,-178.5001 446.2181,-171.5001"/>
</g>
<!-- EditTaskModule -->
<g id="node3" class="node">
<title>EditTaskModule</title>
<polygon fill="#8dd3c7" stroke="#000000" points="587.0954,-122 584.0954,-126 563.0954,-126 560.0954,-122 476.9046,-122 476.9046,-86 587.0954,-86 587.0954,-122"/>
<text text-anchor="middle" x="532" y="-99.8" font-family="Times,serif" font-size="14.00" fill="#000000">EditTaskModule</text>
</g>
<!-- EditTaskModule&#45;&gt;TasksModule -->
<g id="edge2" class="edge">
<title>EditTaskModule&#45;&gt;TasksModule</title>
<path fill="none" stroke="#000000" d="M532,-122.0225C532,-139.3734 532,-163 532,-163 532,-163 446.1033,-163 446.1033,-163"/>
<polygon fill="#000000" stroke="#000000" points="446.1034,-159.5001 436.1033,-163 446.1033,-166.5001 446.1034,-159.5001"/>
</g>
<!-- SidenavTasksModule -->
<g id="node4" class="node">
<title>SidenavTasksModule</title>
<polygon fill="#8dd3c7" stroke="#000000" points="458.8089,-122 455.8089,-126 434.8089,-126 431.8089,-122 321.1911,-122 321.1911,-86 458.8089,-86 458.8089,-122"/>
<text text-anchor="middle" x="390" y="-99.8" font-family="Times,serif" font-size="14.00" fill="#000000">SidenavTasksModule</text>
</g>
<!-- SidenavTasksModule&#45;&gt;TasksModule -->
<g id="edge3" class="edge">
<title>SidenavTasksModule&#45;&gt;TasksModule</title>
<path fill="none" stroke="#000000" d="M390,-122.1061C390,-122.1061 390,-140.991 390,-140.991"/>
<polygon fill="#000000" stroke="#000000" points="386.5001,-140.9909 390,-150.991 393.5001,-140.991 386.5001,-140.9909"/>
</g>
<!-- TasksRoutingModule -->
<g id="node5" class="node">
<title>TasksRoutingModule</title>
<polygon fill="#8dd3c7" stroke="#000000" points="303.8244,-122 300.8244,-126 279.8244,-126 276.8244,-122 166.1756,-122 166.1756,-86 303.8244,-86 303.8244,-122"/>
<text text-anchor="middle" x="235" y="-99.8" font-family="Times,serif" font-size="14.00" fill="#000000">TasksRoutingModule</text>
</g>
<!-- TasksRoutingModule&#45;&gt;TasksModule -->
<g id="edge4" class="edge">
<title>TasksRoutingModule&#45;&gt;TasksModule</title>
<path fill="none" stroke="#000000" d="M235,-122.0225C235,-139.3734 235,-163 235,-163 235,-163 333.4949,-163 333.4949,-163"/>
<polygon fill="#000000" stroke="#000000" points="333.4949,-166.5001 343.4949,-163 333.4949,-159.5001 333.4949,-166.5001"/>
</g>
<!-- TasksTableModule -->
<g id="node6" class="node">
<title>TasksTableModule</title>
<polygon fill="#8dd3c7" stroke="#000000" points="148.0786,-122 145.0786,-126 124.0786,-126 121.0786,-122 23.9214,-122 23.9214,-86 148.0786,-86 148.0786,-122"/>
<text text-anchor="middle" x="86" y="-99.8" font-family="Times,serif" font-size="14.00" fill="#000000">TasksTableModule</text>
</g>
<!-- TasksTableModule&#45;&gt;TasksModule -->
<g id="edge5" class="edge">
<title>TasksTableModule&#45;&gt;TasksModule</title>
<path fill="none" stroke="#000000" d="M86,-122.2843C86,-143.3211 86,-175 86,-175 86,-175 333.8289,-175 333.8289,-175"/>
<polygon fill="#000000" stroke="#000000" points="333.829,-178.5001 343.8289,-175 333.8289,-171.5001 333.829,-178.5001"/>
</g>
</g>
</svg>
