<?xml version="1.0" encoding="UTF-8" standalone="no"?>
<!DOCTYPE svg PUBLIC "-//W3C//DTD SVG 1.1//EN"
 "http://www.w3.org/Graphics/SVG/1.1/DTD/svg11.dtd">
<!-- Generated by graphviz version 2.40.1 (20161225.0304)
 -->
<!-- Title: dependencies Pages: 1 -->
<svg width="1040pt" height="211pt"
 viewBox="0.00 0.00 1040.00 211.00" xmlns="http://www.w3.org/2000/svg" xmlns:xlink="http://www.w3.org/1999/xlink">
<g id="graph0" class="graph" transform="scale(1 1) rotate(0) translate(4 207)">
<title>dependencies</title>
<polygon fill="#ffffff" stroke="transparent" points="-4,4 -4,-207 1036,-207 1036,4 -4,4"/>
<text text-anchor="start" x="495.0091" y="-42.4" font-family="sans-serif" font-weight="bold" font-size="14.00" fill="#000000">Legend</text>
<polygon fill="#ffffb3" stroke="transparent" points="282,-10 282,-30 302,-30 302,-10 282,-10"/>
<text text-anchor="start" x="305.629" y="-15.4" font-family="sans-serif" font-size="14.00" fill="#000000"> &#160;Declarations</text>
<polygon fill="#8dd3c7" stroke="transparent" points="395,-10 395,-30 415,-30 415,-10 395,-10"/>
<text text-anchor="start" x="418.7251" y="-15.4" font-family="sans-serif" font-size="14.00" fill="#000000"> &#160;Module</text>
<polygon fill="#80b1d3" stroke="transparent" points="481,-10 481,-30 501,-30 501,-10 481,-10"/>
<text text-anchor="start" x="504.7812" y="-15.4" font-family="sans-serif" font-size="14.00" fill="#000000"> &#160;Bootstrap</text>
<polygon fill="#fdb462" stroke="transparent" points="578,-10 578,-30 598,-30 598,-10 578,-10"/>
<text text-anchor="start" x="601.6732" y="-15.4" font-family="sans-serif" font-size="14.00" fill="#000000"> &#160;Providers</text>
<polygon fill="#fb8072" stroke="transparent" points="674,-10 674,-30 694,-30 694,-10 674,-10"/>
<text text-anchor="start" x="697.7258" y="-15.4" font-family="sans-serif" font-size="14.00" fill="#000000"> &#160;Exports</text>
<g id="clust1" class="cluster">
<title>cluster_EditTaskModule</title>
<polygon fill="none" stroke="#000000" stroke-dasharray="1,5" points="8,-70 8,-195 1024,-195 1024,-70 8,-70"/>
</g>
<g id="clust2" class="cluster">
<title>cluster_EditTaskModule_declarations</title>
<polygon fill="none" stroke="#000000" points="686,-78 686,-130 1016,-130 1016,-78 686,-78"/>
</g>
<g id="clust5" class="cluster">
<title>cluster_EditTaskModule_imports</title>
<polygon fill="none" stroke="#000000" points="228,-78 228,-130 678,-130 678,-78 228,-78"/>
</g>
<g id="clust8" class="cluster">
<title>cluster_EditTaskModule_providers</title>
<polygon fill="none" stroke="#000000" points="16,-78 16,-130 220,-130 220,-78 16,-78"/>
</g>
<!-- EditTaskComponent -->
<g id="node1" class="node">
<title>EditTaskComponent</title>
<polygon fill="#ffffb3" stroke="#000000" points="1007.8781,-122 876.1219,-122 876.1219,-86 1007.8781,-86 1007.8781,-122"/>
<text text-anchor="middle" x="942" y="-99.8" font-family="Times,serif" font-size="14.00" fill="#000000">EditTaskComponent</text>
</g>
<!-- EditTaskModule -->
<g id="node3" class="node">
<title>EditTaskModule</title>
<polygon fill="#8dd3c7" stroke="#000000" points="590.0954,-187 587.0954,-191 566.0954,-191 563.0954,-187 479.9046,-187 479.9046,-151 590.0954,-151 590.0954,-187"/>
<text text-anchor="middle" x="535" y="-164.8" font-family="Times,serif" font-size="14.00" fill="#000000">EditTaskModule</text>
</g>
<!-- EditTaskComponent&#45;&gt;EditTaskModule -->
<g id="edge1" class="edge">
<title>EditTaskComponent&#45;&gt;EditTaskModule</title>
<path fill="none" stroke="#000000" d="M942,-122.2843C942,-143.3211 942,-175 942,-175 942,-175 600.3134,-175 600.3134,-175"/>
<polygon fill="#000000" stroke="#000000" points="600.3134,-171.5001 590.3134,-175 600.3134,-178.5001 600.3134,-171.5001"/>
</g>
<!-- RecurringTaskComponent -->
<g id="node2" class="node">
<title>RecurringTaskComponent</title>
<polygon fill="#ffffb3" stroke="#000000" points="858.0225,-122 693.9775,-122 693.9775,-86 858.0225,-86 858.0225,-122"/>
<text text-anchor="middle" x="776" y="-99.8" font-family="Times,serif" font-size="14.00" fill="#000000">RecurringTaskComponent</text>
</g>
<!-- RecurringTaskComponent&#45;&gt;EditTaskModule -->
<g id="edge2" class="edge">
<title>RecurringTaskComponent&#45;&gt;EditTaskModule</title>
<path fill="none" stroke="#000000" d="M776,-122.0225C776,-139.3734 776,-163 776,-163 776,-163 600.2903,-163 600.2903,-163"/>
<polygon fill="#000000" stroke="#000000" points="600.2903,-159.5001 590.2903,-163 600.2902,-166.5001 600.2903,-159.5001"/>
</g>
<!-- TaskFormModule -->
<g id="node4" class="node">
<title>TaskFormModule</title>
<polygon fill="#8dd3c7" stroke="#000000" points="669.5954,-122 666.5954,-126 645.5954,-126 642.5954,-122 552.4046,-122 552.4046,-86 669.5954,-86 669.5954,-122"/>
<text text-anchor="middle" x="611" y="-99.8" font-family="Times,serif" font-size="14.00" fill="#000000">TaskFormModule</text>
</g>
<!-- TaskFormModule&#45;&gt;EditTaskModule -->
<g id="edge3" class="edge">
<title>TaskFormModule&#45;&gt;EditTaskModule</title>
<path fill="none" stroke="#000000" d="M571.25,-122.1061C571.25,-122.1061 571.25,-140.991 571.25,-140.991"/>
<polygon fill="#000000" stroke="#000000" points="567.7501,-140.9909 571.25,-150.991 574.7501,-140.991 567.7501,-140.9909"/>
</g>
<!-- TasksButtonBarModule -->
<g id="node5" class="node">
<title>TasksButtonBarModule</title>
<polygon fill="#8dd3c7" stroke="#000000" points="534.0365,-122 531.0365,-126 510.0365,-126 507.0365,-122 383.9635,-122 383.9635,-86 534.0365,-86 534.0365,-122"/>
<text text-anchor="middle" x="459" y="-99.8" font-family="Times,serif" font-size="14.00" fill="#000000">TasksButtonBarModule</text>
</g>
<!-- TasksButtonBarModule&#45;&gt;EditTaskModule -->
<g id="edge4" class="edge">
<title>TasksButtonBarModule&#45;&gt;EditTaskModule</title>
<path fill="none" stroke="#000000" d="M507.1101,-122.1061C507.1101,-122.1061 507.1101,-140.991 507.1101,-140.991"/>
<polygon fill="#000000" stroke="#000000" points="503.6102,-140.9909 507.1101,-150.991 510.6102,-140.991 503.6102,-140.9909"/>
</g>
<!-- TasksDialogModule -->
<g id="node6" class="node">
<title>TasksDialogModule</title>
<polygon fill="#8dd3c7" stroke="#000000" points="366.309,-122 363.309,-126 342.309,-126 339.309,-122 235.691,-122 235.691,-86 366.309,-86 366.309,-122"/>
<text text-anchor="middle" x="301" y="-99.8" font-family="Times,serif" font-size="14.00" fill="#000000">TasksDialogModule</text>
</g>
<!-- TasksDialogModule&#45;&gt;EditTaskModule -->
<g id="edge5" class="edge">
<title>TasksDialogModule&#45;&gt;EditTaskModule</title>
<path fill="none" stroke="#000000" d="M301,-122.0225C301,-139.3734 301,-163 301,-163 301,-163 469.8416,-163 469.8416,-163"/>
<polygon fill="#000000" stroke="#000000" points="469.8416,-166.5001 479.8416,-163 469.8415,-159.5001 469.8416,-166.5001"/>
</g>
<!-- MatPaginatorCustom -->
<g id="node7" class="node">
<title>MatPaginatorCustom</title>
<ellipse fill="#fdb462" stroke="#000000" cx="118" cy="-104" rx="93.7978" ry="18"/>
<text text-anchor="middle" x="118" y="-99.8" font-family="Times,serif" font-size="14.00" fill="#000000">MatPaginatorCustom</text>
</g>
<!-- MatPaginatorCustom&#45;&gt;EditTaskModule -->
<g id="edge6" class="edge">
<title>MatPaginatorCustom&#45;&gt;EditTaskModule</title>
<path fill="none" stroke="#000000" d="M118,-122.2843C118,-143.3211 118,-175 118,-175 118,-175 469.6256,-175 469.6256,-175"/>
<polygon fill="#000000" stroke="#000000" points="469.6257,-178.5001 479.6256,-175 469.6256,-171.5001 469.6257,-178.5001"/>
</g>
</g>
</svg>
