<?xml version="1.0" encoding="UTF-8" standalone="no"?>
<!DOCTYPE svg PUBLIC "-//W3C//DTD SVG 1.1//EN"
 "http://www.w3.org/Graphics/SVG/1.1/DTD/svg11.dtd">
<!-- Generated by graphviz version 2.40.1 (20161225.0304)
 -->
<!-- Title: dependencies Pages: 1 -->
<svg width="522pt" height="211pt"
 viewBox="0.00 0.00 522.00 211.00" xmlns="http://www.w3.org/2000/svg" xmlns:xlink="http://www.w3.org/1999/xlink">
<g id="graph0" class="graph" transform="scale(1 1) rotate(0) translate(4 207)">
<title>dependencies</title>
<polygon fill="#ffffff" stroke="transparent" points="-4,4 -4,-207 518,-207 518,4 -4,4"/>
<text text-anchor="start" x="236.0091" y="-42.4" font-family="sans-serif" font-weight="bold" font-size="14.00" fill="#000000">Legend</text>
<polygon fill="#ffffb3" stroke="transparent" points="23,-10 23,-30 43,-30 43,-10 23,-10"/>
<text text-anchor="start" x="46.629" y="-15.4" font-family="sans-serif" font-size="14.00" fill="#000000"> &#160;Declarations</text>
<polygon fill="#8dd3c7" stroke="transparent" points="136,-10 136,-30 156,-30 156,-10 136,-10"/>
<text text-anchor="start" x="159.7251" y="-15.4" font-family="sans-serif" font-size="14.00" fill="#000000"> &#160;Module</text>
<polygon fill="#80b1d3" stroke="transparent" points="222,-10 222,-30 242,-30 242,-10 222,-10"/>
<text text-anchor="start" x="245.7812" y="-15.4" font-family="sans-serif" font-size="14.00" fill="#000000"> &#160;Bootstrap</text>
<polygon fill="#fdb462" stroke="transparent" points="319,-10 319,-30 339,-30 339,-10 319,-10"/>
<text text-anchor="start" x="342.6732" y="-15.4" font-family="sans-serif" font-size="14.00" fill="#000000"> &#160;Providers</text>
<polygon fill="#fb8072" stroke="transparent" points="415,-10 415,-30 435,-30 435,-10 415,-10"/>
<text text-anchor="start" x="438.7258" y="-15.4" font-family="sans-serif" font-size="14.00" fill="#000000"> &#160;Exports</text>
<g id="clust1" class="cluster">
<title>cluster_TasksDialogModule</title>
<polygon fill="none" stroke="#000000" stroke-dasharray="1,5" points="8,-70 8,-195 506,-195 506,-70 8,-70"/>
</g>
<g id="clust3" class="cluster">
<title>cluster_TasksDialogModule_imports</title>
<polygon fill="none" stroke="#000000" points="16,-78 16,-130 498,-130 498,-78 16,-78"/>
</g>
<!-- CompleteTaskModule -->
<g id="node1" class="node">
<title>CompleteTaskModule</title>
<polygon fill="#8dd3c7" stroke="#000000" points="489.6993,-122 486.6993,-126 465.6993,-126 462.6993,-122 348.3007,-122 348.3007,-86 489.6993,-86 489.6993,-122"/>
<text text-anchor="middle" x="419" y="-99.8" font-family="Times,serif" font-size="14.00" fill="#000000">CompleteTaskModule</text>
</g>
<!-- TasksDialogModule -->
<g id="node4" class="node">
<title>TasksDialogModule</title>
<polygon fill="#8dd3c7" stroke="#000000" points="310.309,-187 307.309,-191 286.309,-191 283.309,-187 179.691,-187 179.691,-151 310.309,-151 310.309,-187"/>
<text text-anchor="middle" x="245" y="-164.8" font-family="Times,serif" font-size="14.00" fill="#000000">TasksDialogModule</text>
</g>
<!-- CompleteTaskModule&#45;&gt;TasksDialogModule -->
<g id="edge1" class="edge">
<title>CompleteTaskModule&#45;&gt;TasksDialogModule</title>
<path fill="none" stroke="#000000" d="M419,-122.1061C419,-141.3391 419,-169 419,-169 419,-169 320.2862,-169 320.2862,-169"/>
<polygon fill="#000000" stroke="#000000" points="320.2863,-165.5001 310.2862,-169 320.2862,-172.5001 320.2863,-165.5001"/>
</g>
<!-- ConfirmDeleteTaskModule -->
<g id="node2" class="node">
<title>ConfirmDeleteTaskModule</title>
<polygon fill="#8dd3c7" stroke="#000000" points="330.2324,-122 327.2324,-126 306.2324,-126 303.2324,-122 159.7676,-122 159.7676,-86 330.2324,-86 330.2324,-122"/>
<text text-anchor="middle" x="245" y="-99.8" font-family="Times,serif" font-size="14.00" fill="#000000">ConfirmDeleteTaskModule</text>
</g>
<!-- ConfirmDeleteTaskModule&#45;&gt;TasksDialogModule -->
<g id="edge2" class="edge">
<title>ConfirmDeleteTaskModule&#45;&gt;TasksDialogModule</title>
<path fill="none" stroke="#000000" d="M245,-122.1061C245,-122.1061 245,-140.991 245,-140.991"/>
<polygon fill="#000000" stroke="#000000" points="241.5001,-140.9909 245,-150.991 248.5001,-140.991 241.5001,-140.9909"/>
</g>
<!-- TaskFormModule -->
<g id="node3" class="node">
<title>TaskFormModule</title>
<polygon fill="#8dd3c7" stroke="#000000" points="141.5954,-122 138.5954,-126 117.5954,-126 114.5954,-122 24.4046,-122 24.4046,-86 141.5954,-86 141.5954,-122"/>
<text text-anchor="middle" x="83" y="-99.8" font-family="Times,serif" font-size="14.00" fill="#000000">TaskFormModule</text>
</g>
<!-- TaskFormModule&#45;&gt;TasksDialogModule -->
<g id="edge3" class="edge">
<title>TaskFormModule&#45;&gt;TasksDialogModule</title>
<path fill="none" stroke="#000000" d="M83,-122.1061C83,-141.3391 83,-169 83,-169 83,-169 169.5754,-169 169.5754,-169"/>
<polygon fill="#000000" stroke="#000000" points="169.5754,-172.5001 179.5754,-169 169.5753,-165.5001 169.5754,-172.5001"/>
</g>
</g>
</svg>
