<?xml version="1.0" encoding="UTF-8" standalone="no"?>
<!DOCTYPE svg PUBLIC "-//W3C//DTD SVG 1.1//EN"
 "http://www.w3.org/Graphics/SVG/1.1/DTD/svg11.dtd">
<!-- Generated by graphviz version 2.40.1 (20161225.0304)
 -->
<!-- Title: dependencies Pages: 1 -->
<svg width="510pt" height="284pt"
 viewBox="0.00 0.00 510.00 284.00" xmlns="http://www.w3.org/2000/svg" xmlns:xlink="http://www.w3.org/1999/xlink">
<g id="graph0" class="graph" transform="scale(1 1) rotate(0) translate(4 280)">
<title>dependencies</title>
<polygon fill="#ffffff" stroke="transparent" points="-4,4 -4,-280 506,-280 506,4 -4,4"/>
<text text-anchor="start" x="230.0091" y="-42.4" font-family="sans-serif" font-weight="bold" font-size="14.00" fill="#000000">Legend</text>
<polygon fill="#ffffb3" stroke="transparent" points="17,-10 17,-30 37,-30 37,-10 17,-10"/>
<text text-anchor="start" x="40.629" y="-15.4" font-family="sans-serif" font-size="14.00" fill="#000000"> &#160;Declarations</text>
<polygon fill="#8dd3c7" stroke="transparent" points="130,-10 130,-30 150,-30 150,-10 130,-10"/>
<text text-anchor="start" x="153.7251" y="-15.4" font-family="sans-serif" font-size="14.00" fill="#000000"> &#160;Module</text>
<polygon fill="#80b1d3" stroke="transparent" points="216,-10 216,-30 236,-30 236,-10 216,-10"/>
<text text-anchor="start" x="239.7812" y="-15.4" font-family="sans-serif" font-size="14.00" fill="#000000"> &#160;Bootstrap</text>
<polygon fill="#fdb462" stroke="transparent" points="313,-10 313,-30 333,-30 333,-10 313,-10"/>
<text text-anchor="start" x="336.6732" y="-15.4" font-family="sans-serif" font-size="14.00" fill="#000000"> &#160;Providers</text>
<polygon fill="#fb8072" stroke="transparent" points="409,-10 409,-30 429,-30 429,-10 409,-10"/>
<text text-anchor="start" x="432.7258" y="-15.4" font-family="sans-serif" font-size="14.00" fill="#000000"> &#160;Exports</text>
<g id="clust1" class="cluster">
<title>cluster_SidenavTasksModule</title>
<polygon fill="none" stroke="#000000" stroke-dasharray="1,5" points="8,-70 8,-268 494,-268 494,-70 8,-70"/>
</g>
<g id="clust2" class="cluster">
<title>cluster_SidenavTasksModule_declarations</title>
<polygon fill="none" stroke="#000000" points="164,-78 164,-130 486,-130 486,-78 164,-78"/>
</g>
<g id="clust5" class="cluster">
<title>cluster_SidenavTasksModule_imports</title>
<polygon fill="none" stroke="#000000" points="16,-78 16,-130 156,-130 156,-78 16,-78"/>
</g>
<g id="clust6" class="cluster">
<title>cluster_SidenavTasksModule_exports</title>
<polygon fill="none" stroke="#000000" points="163,-208 163,-260 341,-260 341,-208 163,-208"/>
</g>
<!-- ListItemComponent -->
<g id="node1" class="node">
<title>ListItemComponent</title>
<polygon fill="#ffffb3" stroke="#000000" points="478.2674,-122 349.7326,-122 349.7326,-86 478.2674,-86 478.2674,-122"/>
<text text-anchor="middle" x="414" y="-99.8" font-family="Times,serif" font-size="14.00" fill="#000000">ListItemComponent</text>
</g>
<!-- SidenavTasksModule -->
<g id="node3" class="node">
<title>SidenavTasksModule</title>
<polygon fill="#8dd3c7" stroke="#000000" points="320.8089,-187 317.8089,-191 296.8089,-191 293.8089,-187 183.1911,-187 183.1911,-151 320.8089,-151 320.8089,-187"/>
<text text-anchor="middle" x="252" y="-164.8" font-family="Times,serif" font-size="14.00" fill="#000000">SidenavTasksModule</text>
</g>
<!-- ListItemComponent&#45;&gt;SidenavTasksModule -->
<g id="edge1" class="edge">
<title>ListItemComponent&#45;&gt;SidenavTasksModule</title>
<path fill="none" stroke="#000000" d="M414,-122.1061C414,-141.3391 414,-169 414,-169 414,-169 330.7026,-169 330.7026,-169"/>
<polygon fill="#000000" stroke="#000000" points="330.7026,-165.5001 320.7026,-169 330.7025,-172.5001 330.7026,-165.5001"/>
</g>
<!-- SidenavTasksComponent -->
<g id="node2" class="node">
<title>SidenavTasksComponent</title>
<polygon fill="#ffffb3" stroke="#000000" points="331.5912,-122 172.4088,-122 172.4088,-86 331.5912,-86 331.5912,-122"/>
<text text-anchor="middle" x="252" y="-99.8" font-family="Times,serif" font-size="14.00" fill="#000000">SidenavTasksComponent</text>
</g>
<!-- SidenavTasksComponent&#45;&gt;SidenavTasksModule -->
<g id="edge2" class="edge">
<title>SidenavTasksComponent&#45;&gt;SidenavTasksModule</title>
<path fill="none" stroke="#000000" d="M252,-122.1061C252,-122.1061 252,-140.991 252,-140.991"/>
<polygon fill="#000000" stroke="#000000" points="248.5001,-140.9909 252,-150.991 255.5001,-140.991 248.5001,-140.9909"/>
</g>
<!-- SidenavTasksComponent  -->
<g id="node5" class="node">
<title>SidenavTasksComponent </title>
<polygon fill="#fb8072" stroke="#000000" points="333.0917,-252 170.9083,-252 170.9083,-216 333.0917,-216 333.0917,-252"/>
<text text-anchor="middle" x="252" y="-229.8" font-family="Times,serif" font-size="14.00" fill="#000000">SidenavTasksComponent </text>
</g>
<!-- SidenavTasksModule&#45;&gt;SidenavTasksComponent  -->
<g id="edge4" class="edge">
<title>SidenavTasksModule&#45;&gt;SidenavTasksComponent </title>
<path fill="none" stroke="#000000" stroke-dasharray="5,2" d="M252,-187.1061C252,-187.1061 252,-205.991 252,-205.991"/>
<polygon fill="#000000" stroke="#000000" points="248.5001,-205.9909 252,-215.991 255.5001,-205.991 248.5001,-205.9909"/>
</g>
<!-- CreateTaskModule -->
<g id="node4" class="node">
<title>CreateTaskModule</title>
<polygon fill="#8dd3c7" stroke="#000000" points="147.7935,-122 144.7935,-126 123.7935,-126 120.7935,-122 24.2065,-122 24.2065,-86 147.7935,-86 147.7935,-122"/>
<text text-anchor="middle" x="86" y="-99.8" font-family="Times,serif" font-size="14.00" fill="#000000">CreateTaskModule</text>
</g>
<!-- CreateTaskModule&#45;&gt;SidenavTasksModule -->
<g id="edge3" class="edge">
<title>CreateTaskModule&#45;&gt;SidenavTasksModule</title>
<path fill="none" stroke="#000000" d="M86,-122.1061C86,-141.3391 86,-169 86,-169 86,-169 173.0432,-169 173.0432,-169"/>
<polygon fill="#000000" stroke="#000000" points="173.0432,-172.5001 183.0432,-169 173.0432,-165.5001 173.0432,-172.5001"/>
</g>
</g>
</svg>
