<?xml version="1.0" encoding="UTF-8" standalone="no"?>
<!DOCTYPE svg PUBLIC "-//W3C//DTD SVG 1.1//EN"
 "http://www.w3.org/Graphics/SVG/1.1/DTD/svg11.dtd">
<!-- Generated by graphviz version 2.40.1 (20161225.0304)
 -->
<!-- Title: dependencies Pages: 1 -->
<svg width="504pt" height="284pt"
 viewBox="0.00 0.00 504.00 284.00" xmlns="http://www.w3.org/2000/svg" xmlns:xlink="http://www.w3.org/1999/xlink">
<g id="graph0" class="graph" transform="scale(1 1) rotate(0) translate(4 280)">
<title>dependencies</title>
<polygon fill="#ffffff" stroke="transparent" points="-4,4 -4,-280 500,-280 500,4 -4,4"/>
<text text-anchor="start" x="227.0091" y="-42.4" font-family="sans-serif" font-weight="bold" font-size="14.00" fill="#000000">Legend</text>
<polygon fill="#ffffb3" stroke="transparent" points="14,-10 14,-30 34,-30 34,-10 14,-10"/>
<text text-anchor="start" x="37.629" y="-15.4" font-family="sans-serif" font-size="14.00" fill="#000000"> &#160;Declarations</text>
<polygon fill="#8dd3c7" stroke="transparent" points="127,-10 127,-30 147,-30 147,-10 127,-10"/>
<text text-anchor="start" x="150.7251" y="-15.4" font-family="sans-serif" font-size="14.00" fill="#000000"> &#160;Module</text>
<polygon fill="#80b1d3" stroke="transparent" points="213,-10 213,-30 233,-30 233,-10 213,-10"/>
<text text-anchor="start" x="236.7812" y="-15.4" font-family="sans-serif" font-size="14.00" fill="#000000"> &#160;Bootstrap</text>
<polygon fill="#fdb462" stroke="transparent" points="310,-10 310,-30 330,-30 330,-10 310,-10"/>
<text text-anchor="start" x="333.6732" y="-15.4" font-family="sans-serif" font-size="14.00" fill="#000000"> &#160;Providers</text>
<polygon fill="#fb8072" stroke="transparent" points="406,-10 406,-30 426,-30 426,-10 406,-10"/>
<text text-anchor="start" x="429.7258" y="-15.4" font-family="sans-serif" font-size="14.00" fill="#000000"> &#160;Exports</text>
<g id="clust1" class="cluster">
<title>cluster_TasksButtonBarModule</title>
<polygon fill="none" stroke="#000000" stroke-dasharray="1,5" points="82,-70 82,-268 414,-268 414,-70 82,-70"/>
</g>
<g id="clust2" class="cluster">
<title>cluster_TasksButtonBarModule_declarations</title>
<polygon fill="none" stroke="#000000" points="250,-78 250,-130 406,-130 406,-78 250,-78"/>
</g>
<g id="clust4" class="cluster">
<title>cluster_TasksButtonBarModule_imports</title>
<polygon fill="none" stroke="#000000" points="90,-78 90,-130 242,-130 242,-78 90,-78"/>
</g>
<g id="clust5" class="cluster">
<title>cluster_TasksButtonBarModule_exports</title>
<polygon fill="none" stroke="#000000" points="168,-208 168,-260 328,-260 328,-208 168,-208"/>
</g>
<!-- ButtonBarComponent -->
<g id="node1" class="node">
<title>ButtonBarComponent</title>
<polygon fill="#ffffb3" stroke="#000000" points="397.6624,-122 258.3376,-122 258.3376,-86 397.6624,-86 397.6624,-122"/>
<text text-anchor="middle" x="328" y="-99.8" font-family="Times,serif" font-size="14.00" fill="#000000">ButtonBarComponent</text>
</g>
<!-- TasksButtonBarModule -->
<g id="node2" class="node">
<title>TasksButtonBarModule</title>
<polygon fill="#8dd3c7" stroke="#000000" points="323.0365,-187 320.0365,-191 299.0365,-191 296.0365,-187 172.9635,-187 172.9635,-151 323.0365,-151 323.0365,-187"/>
<text text-anchor="middle" x="248" y="-164.8" font-family="Times,serif" font-size="14.00" fill="#000000">TasksButtonBarModule</text>
</g>
<!-- ButtonBarComponent&#45;&gt;TasksButtonBarModule -->
<g id="edge1" class="edge">
<title>ButtonBarComponent&#45;&gt;TasksButtonBarModule</title>
<path fill="none" stroke="#000000" d="M290.7184,-122.1061C290.7184,-122.1061 290.7184,-140.991 290.7184,-140.991"/>
<polygon fill="#000000" stroke="#000000" points="287.2185,-140.9909 290.7184,-150.991 294.2185,-140.991 287.2185,-140.9909"/>
</g>
<!-- ButtonBarComponent  -->
<g id="node4" class="node">
<title>ButtonBarComponent </title>
<polygon fill="#fb8072" stroke="#000000" points="319.6621,-252 176.3379,-252 176.3379,-216 319.6621,-216 319.6621,-252"/>
<text text-anchor="middle" x="248" y="-229.8" font-family="Times,serif" font-size="14.00" fill="#000000">ButtonBarComponent </text>
</g>
<!-- TasksButtonBarModule&#45;&gt;ButtonBarComponent  -->
<g id="edge3" class="edge">
<title>TasksButtonBarModule&#45;&gt;ButtonBarComponent </title>
<path fill="none" stroke="#000000" stroke-dasharray="5,2" d="M248,-187.1061C248,-187.1061 248,-205.991 248,-205.991"/>
<polygon fill="#000000" stroke="#000000" points="244.5001,-205.9909 248,-215.991 251.5001,-205.991 244.5001,-205.9909"/>
</g>
<!-- TasksButtonsModule -->
<g id="node3" class="node">
<title>TasksButtonsModule</title>
<polygon fill="#8dd3c7" stroke="#000000" points="233.7688,-122 230.7688,-126 209.7688,-126 206.7688,-122 98.2312,-122 98.2312,-86 233.7688,-86 233.7688,-122"/>
<text text-anchor="middle" x="166" y="-99.8" font-family="Times,serif" font-size="14.00" fill="#000000">TasksButtonsModule</text>
</g>
<!-- TasksButtonsModule&#45;&gt;TasksButtonBarModule -->
<g id="edge2" class="edge">
<title>TasksButtonsModule&#45;&gt;TasksButtonBarModule</title>
<path fill="none" stroke="#000000" d="M203.3082,-122.1061C203.3082,-122.1061 203.3082,-140.991 203.3082,-140.991"/>
<polygon fill="#000000" stroke="#000000" points="199.8083,-140.9909 203.3082,-150.991 206.8083,-140.991 199.8083,-140.9909"/>
</g>
</g>
</svg>
