<?xml version="1.0" encoding="UTF-8" standalone="no"?>
<!DOCTYPE svg PUBLIC "-//W3C//DTD SVG 1.1//EN"
 "http://www.w3.org/Graphics/SVG/1.1/DTD/svg11.dtd">
<!-- Generated by graphviz version 2.40.1 (20161225.0304)
 -->
<!-- Title: dependencies Pages: 1 -->
<svg width="1057pt" height="284pt"
 viewBox="0.00 0.00 1057.00 284.00" xmlns="http://www.w3.org/2000/svg" xmlns:xlink="http://www.w3.org/1999/xlink">
<g id="graph0" class="graph" transform="scale(1 1) rotate(0) translate(4 280)">
<title>dependencies</title>
<polygon fill="#ffffff" stroke="transparent" points="-4,4 -4,-280 1053,-280 1053,4 -4,4"/>
<text text-anchor="start" x="503.5091" y="-42.4" font-family="sans-serif" font-weight="bold" font-size="14.00" fill="#000000">Legend</text>
<polygon fill="#ffffb3" stroke="transparent" points="290.5,-10 290.5,-30 310.5,-30 310.5,-10 290.5,-10"/>
<text text-anchor="start" x="314.129" y="-15.4" font-family="sans-serif" font-size="14.00" fill="#000000"> &#160;Declarations</text>
<polygon fill="#8dd3c7" stroke="transparent" points="403.5,-10 403.5,-30 423.5,-30 423.5,-10 403.5,-10"/>
<text text-anchor="start" x="427.2251" y="-15.4" font-family="sans-serif" font-size="14.00" fill="#000000"> &#160;Module</text>
<polygon fill="#80b1d3" stroke="transparent" points="489.5,-10 489.5,-30 509.5,-30 509.5,-10 489.5,-10"/>
<text text-anchor="start" x="513.2812" y="-15.4" font-family="sans-serif" font-size="14.00" fill="#000000"> &#160;Bootstrap</text>
<polygon fill="#fdb462" stroke="transparent" points="586.5,-10 586.5,-30 606.5,-30 606.5,-10 586.5,-10"/>
<text text-anchor="start" x="610.1732" y="-15.4" font-family="sans-serif" font-size="14.00" fill="#000000"> &#160;Providers</text>
<polygon fill="#fb8072" stroke="transparent" points="682.5,-10 682.5,-30 702.5,-30 702.5,-10 682.5,-10"/>
<text text-anchor="start" x="706.2258" y="-15.4" font-family="sans-serif" font-size="14.00" fill="#000000"> &#160;Exports</text>
<g id="clust1" class="cluster">
<title>cluster_AppModule</title>
<polygon fill="none" stroke="#000000" stroke-dasharray="1,5" points="8,-70 8,-268 1041,-268 1041,-70 8,-70"/>
</g>
<g id="clust2" class="cluster">
<title>cluster_AppModule_declarations</title>
<polygon fill="none" stroke="#000000" points="728,-78 728,-130 1033,-130 1033,-78 728,-78"/>
</g>
<g id="clust5" class="cluster">
<title>cluster_AppModule_imports</title>
<polygon fill="none" stroke="#000000" points="16,-78 16,-130 720,-130 720,-78 16,-78"/>
</g>
<g id="clust7" class="cluster">
<title>cluster_AppModule_bootstrap</title>
<polygon fill="none" stroke="#000000" points="410,-208 410,-260 534,-260 534,-208 410,-208"/>
</g>
<!-- AppComponent -->
<g id="node1" class="node">
<title>AppComponent</title>
<polygon fill="#ffffb3" stroke="#000000" points="1024.9399,-122 919.0601,-122 919.0601,-86 1024.9399,-86 1024.9399,-122"/>
<text text-anchor="middle" x="972" y="-99.8" font-family="Times,serif" font-size="14.00" fill="#000000">AppComponent</text>
</g>
<!-- AppModule -->
<g id="node3" class="node">
<title>AppModule</title>
<polygon fill="#8dd3c7" stroke="#000000" points="513.6571,-187 510.6571,-191 489.6571,-191 486.6571,-187 430.3429,-187 430.3429,-151 513.6571,-151 513.6571,-187"/>
<text text-anchor="middle" x="472" y="-164.8" font-family="Times,serif" font-size="14.00" fill="#000000">AppModule</text>
</g>
<!-- AppComponent&#45;&gt;AppModule -->
<g id="edge1" class="edge">
<title>AppComponent&#45;&gt;AppModule</title>
<path fill="none" stroke="#000000" d="M972,-122.2921C972,-144.2057 972,-178 972,-178 972,-178 523.7697,-178 523.7697,-178"/>
<polygon fill="#000000" stroke="#000000" points="523.7698,-174.5001 513.7697,-178 523.7697,-181.5001 523.7698,-174.5001"/>
</g>
<!-- PageNotFoundComponent -->
<g id="node2" class="node">
<title>PageNotFoundComponent</title>
<polygon fill="#ffffb3" stroke="#000000" points="901.8243,-122 736.1757,-122 736.1757,-86 901.8243,-86 901.8243,-122"/>
<text text-anchor="middle" x="819" y="-99.8" font-family="Times,serif" font-size="14.00" fill="#000000">PageNotFoundComponent</text>
</g>
<!-- PageNotFoundComponent&#45;&gt;AppModule -->
<g id="edge2" class="edge">
<title>PageNotFoundComponent&#45;&gt;AppModule</title>
<path fill="none" stroke="#000000" d="M819,-122.1061C819,-141.3391 819,-169 819,-169 819,-169 523.8563,-169 523.8563,-169"/>
<polygon fill="#000000" stroke="#000000" points="523.8563,-165.5001 513.8563,-169 523.8563,-172.5001 523.8563,-165.5001"/>
</g>
<!-- AppComponent  -->
<g id="node10" class="node">
<title>AppComponent </title>
<polygon fill="#80b1d3" stroke="#000000" points="526.439,-252 417.561,-252 417.561,-216 526.439,-216 526.439,-252"/>
<text text-anchor="middle" x="472" y="-229.8" font-family="Times,serif" font-size="14.00" fill="#000000">AppComponent </text>
</g>
<!-- AppModule&#45;&gt;AppComponent  -->
<g id="edge9" class="edge">
<title>AppModule&#45;&gt;AppComponent </title>
<path fill="none" stroke="#000000" stroke-dasharray="1,5" d="M472,-187.1061C472,-187.1061 472,-205.991 472,-205.991"/>
<polygon fill="#000000" stroke="#000000" points="468.5001,-205.9909 472,-215.991 475.5001,-205.991 468.5001,-205.9909"/>
</g>
<!-- AboutModule -->
<g id="node4" class="node">
<title>AboutModule</title>
<polygon fill="#8dd3c7" stroke="#000000" points="712.0481,-122 709.0481,-126 688.0481,-126 685.0481,-122 617.9519,-122 617.9519,-86 712.0481,-86 712.0481,-122"/>
<text text-anchor="middle" x="665" y="-99.8" font-family="Times,serif" font-size="14.00" fill="#000000">AboutModule</text>
</g>
<!-- AboutModule&#45;&gt;AppModule -->
<g id="edge3" class="edge">
<title>AboutModule&#45;&gt;AppModule</title>
<path fill="none" stroke="#000000" d="M665,-122.027C665,-138.3976 665,-160 665,-160 665,-160 523.8781,-160 523.8781,-160"/>
<polygon fill="#000000" stroke="#000000" points="523.8782,-156.5001 513.8781,-160 523.8781,-163.5001 523.8782,-156.5001"/>
</g>
<!-- AppRoutingModule -->
<g id="node5" class="node">
<title>AppRoutingModule</title>
<polygon fill="#8dd3c7" stroke="#000000" points="599.2744,-122 596.2744,-126 575.2744,-126 572.2744,-122 470.7256,-122 470.7256,-86 599.2744,-86 599.2744,-122"/>
<text text-anchor="middle" x="535" y="-99.8" font-family="Times,serif" font-size="14.00" fill="#000000">AppRoutingModule</text>
</g>
<!-- AppRoutingModule&#45;&gt;AppModule -->
<g id="edge4" class="edge">
<title>AppRoutingModule&#45;&gt;AppModule</title>
<path fill="none" stroke="#000000" d="M492.2206,-122.1061C492.2206,-122.1061 492.2206,-140.991 492.2206,-140.991"/>
<polygon fill="#000000" stroke="#000000" points="488.7206,-140.9909 492.2206,-150.991 495.7206,-140.991 488.7206,-140.9909"/>
</g>
<!-- CoreModule -->
<g id="node6" class="node">
<title>CoreModule</title>
<polygon fill="#8dd3c7" stroke="#000000" points="452.2619,-122 449.2619,-126 428.2619,-126 425.2619,-122 365.7381,-122 365.7381,-86 452.2619,-86 452.2619,-122"/>
<text text-anchor="middle" x="409" y="-99.8" font-family="Times,serif" font-size="14.00" fill="#000000">CoreModule</text>
</g>
<!-- CoreModule&#45;&gt;AppModule -->
<g id="edge5" class="edge">
<title>CoreModule&#45;&gt;AppModule</title>
<path fill="none" stroke="#000000" d="M441.2763,-122.1061C441.2763,-122.1061 441.2763,-140.991 441.2763,-140.991"/>
<polygon fill="#000000" stroke="#000000" points="437.7764,-140.9909 441.2763,-150.991 444.7764,-140.991 437.7764,-140.9909"/>
</g>
<!-- FooterModule -->
<g id="node7" class="node">
<title>FooterModule</title>
<polygon fill="#8dd3c7" stroke="#000000" points="348.0983,-122 345.0983,-126 324.0983,-126 321.0983,-122 251.9017,-122 251.9017,-86 348.0983,-86 348.0983,-122"/>
<text text-anchor="middle" x="300" y="-99.8" font-family="Times,serif" font-size="14.00" fill="#000000">FooterModule</text>
</g>
<!-- FooterModule&#45;&gt;AppModule -->
<g id="edge6" class="edge">
<title>FooterModule&#45;&gt;AppModule</title>
<path fill="none" stroke="#000000" d="M300,-122.027C300,-138.3976 300,-160 300,-160 300,-160 419.9241,-160 419.9241,-160"/>
<polygon fill="#000000" stroke="#000000" points="419.9241,-163.5001 429.9241,-160 419.924,-156.5001 419.9241,-163.5001"/>
</g>
<!-- HeaderModule -->
<g id="node8" class="node">
<title>HeaderModule</title>
<polygon fill="#8dd3c7" stroke="#000000" points="233.9608,-122 230.9608,-126 209.9608,-126 206.9608,-122 134.0392,-122 134.0392,-86 233.9608,-86 233.9608,-122"/>
<text text-anchor="middle" x="184" y="-99.8" font-family="Times,serif" font-size="14.00" fill="#000000">HeaderModule</text>
</g>
<!-- HeaderModule&#45;&gt;AppModule -->
<g id="edge7" class="edge">
<title>HeaderModule&#45;&gt;AppModule</title>
<path fill="none" stroke="#000000" d="M184,-122.1061C184,-141.3391 184,-169 184,-169 184,-169 420.1223,-169 420.1223,-169"/>
<polygon fill="#000000" stroke="#000000" points="420.1224,-172.5001 430.1223,-169 420.1223,-165.5001 420.1224,-172.5001"/>
</g>
<!-- TasksModule -->
<g id="node9" class="node">
<title>TasksModule</title>
<polygon fill="#8dd3c7" stroke="#000000" points="116.2064,-122 113.2064,-126 92.2064,-126 89.2064,-122 23.7936,-122 23.7936,-86 116.2064,-86 116.2064,-122"/>
<text text-anchor="middle" x="70" y="-99.8" font-family="Times,serif" font-size="14.00" fill="#000000">TasksModule</text>
</g>
<!-- TasksModule&#45;&gt;AppModule -->
<g id="edge8" class="edge">
<title>TasksModule&#45;&gt;AppModule</title>
<path fill="none" stroke="#000000" d="M70,-122.2921C70,-144.2057 70,-178 70,-178 70,-178 420.1166,-178 420.1166,-178"/>
<polygon fill="#000000" stroke="#000000" points="420.1166,-181.5001 430.1166,-178 420.1166,-174.5001 420.1166,-181.5001"/>
</g>
</g>
</svg>
