<?xml version="1.0" encoding="UTF-8" standalone="no"?>
<!DOCTYPE svg PUBLIC "-//W3C//DTD SVG 1.1//EN"
 "http://www.w3.org/Graphics/SVG/1.1/DTD/svg11.dtd">
<!-- Generated by graphviz version 2.40.1 (20161225.0304)
 -->
<!-- Title: dependencies Pages: 1 -->
<svg width="1106pt" height="211pt"
 viewBox="0.00 0.00 1106.00 211.00" xmlns="http://www.w3.org/2000/svg" xmlns:xlink="http://www.w3.org/1999/xlink">
<g id="graph0" class="graph" transform="scale(1 1) rotate(0) translate(4 207)">
<title>dependencies</title>
<polygon fill="#ffffff" stroke="transparent" points="-4,4 -4,-207 1102,-207 1102,4 -4,4"/>
<text text-anchor="start" x="528.0091" y="-42.4" font-family="sans-serif" font-weight="bold" font-size="14.00" fill="#000000">Legend</text>
<polygon fill="#ffffb3" stroke="transparent" points="315,-10 315,-30 335,-30 335,-10 315,-10"/>
<text text-anchor="start" x="338.629" y="-15.4" font-family="sans-serif" font-size="14.00" fill="#000000"> &#160;Declarations</text>
<polygon fill="#8dd3c7" stroke="transparent" points="428,-10 428,-30 448,-30 448,-10 428,-10"/>
<text text-anchor="start" x="451.7251" y="-15.4" font-family="sans-serif" font-size="14.00" fill="#000000"> &#160;Module</text>
<polygon fill="#80b1d3" stroke="transparent" points="514,-10 514,-30 534,-30 534,-10 514,-10"/>
<text text-anchor="start" x="537.7812" y="-15.4" font-family="sans-serif" font-size="14.00" fill="#000000"> &#160;Bootstrap</text>
<polygon fill="#fdb462" stroke="transparent" points="611,-10 611,-30 631,-30 631,-10 611,-10"/>
<text text-anchor="start" x="634.6732" y="-15.4" font-family="sans-serif" font-size="14.00" fill="#000000"> &#160;Providers</text>
<polygon fill="#fb8072" stroke="transparent" points="707,-10 707,-30 727,-30 727,-10 707,-10"/>
<text text-anchor="start" x="730.7258" y="-15.4" font-family="sans-serif" font-size="14.00" fill="#000000"> &#160;Exports</text>
<g id="clust1" class="cluster">
<title>cluster_TasksTableModule</title>
<polygon fill="none" stroke="#000000" stroke-dasharray="1,5" points="8,-70 8,-195 1090,-195 1090,-70 8,-70"/>
</g>
<g id="clust2" class="cluster">
<title>cluster_TasksTableModule_declarations</title>
<polygon fill="none" stroke="#000000" points="492,-78 492,-130 1082,-130 1082,-78 492,-78"/>
</g>
<g id="clust6" class="cluster">
<title>cluster_TasksTableModule_imports</title>
<polygon fill="none" stroke="#000000" points="16,-78 16,-130 484,-130 484,-78 16,-78"/>
</g>
<!-- CompleteTasksTableComponent -->
<g id="node1" class="node">
<title>CompleteTasksTableComponent</title>
<polygon fill="#ffffb3" stroke="#000000" points="1074.299,-122 873.701,-122 873.701,-86 1074.299,-86 1074.299,-122"/>
<text text-anchor="middle" x="974" y="-99.8" font-family="Times,serif" font-size="14.00" fill="#000000">CompleteTasksTableComponent</text>
</g>
<!-- TasksTableModule -->
<g id="node4" class="node">
<title>TasksTableModule</title>
<polygon fill="#8dd3c7" stroke="#000000" points="549.0786,-187 546.0786,-191 525.0786,-191 522.0786,-187 424.9214,-187 424.9214,-151 549.0786,-151 549.0786,-187"/>
<text text-anchor="middle" x="487" y="-164.8" font-family="Times,serif" font-size="14.00" fill="#000000">TasksTableModule</text>
</g>
<!-- CompleteTasksTableComponent&#45;&gt;TasksTableModule -->
<g id="edge1" class="edge">
<title>CompleteTasksTableComponent&#45;&gt;TasksTableModule</title>
<path fill="none" stroke="#000000" d="M974,-122.2843C974,-143.3211 974,-175 974,-175 974,-175 559.1735,-175 559.1735,-175"/>
<polygon fill="#000000" stroke="#000000" points="559.1736,-171.5001 549.1735,-175 559.1735,-178.5001 559.1736,-171.5001"/>
</g>
<!-- PendingTasksTableComponent -->
<g id="node2" class="node">
<title>PendingTasksTableComponent</title>
<polygon fill="#ffffb3" stroke="#000000" points="855.7492,-122 664.2508,-122 664.2508,-86 855.7492,-86 855.7492,-122"/>
<text text-anchor="middle" x="760" y="-99.8" font-family="Times,serif" font-size="14.00" fill="#000000">PendingTasksTableComponent</text>
</g>
<!-- PendingTasksTableComponent&#45;&gt;TasksTableModule -->
<g id="edge2" class="edge">
<title>PendingTasksTableComponent&#45;&gt;TasksTableModule</title>
<path fill="none" stroke="#000000" d="M760,-122.0225C760,-139.3734 760,-163 760,-163 760,-163 559.2895,-163 559.2895,-163"/>
<polygon fill="#000000" stroke="#000000" points="559.2896,-159.5001 549.2895,-163 559.2895,-166.5001 559.2896,-159.5001"/>
</g>
<!-- TasksTableComponent -->
<g id="node3" class="node">
<title>TasksTableComponent</title>
<polygon fill="#ffffb3" stroke="#000000" points="645.8613,-122 500.1387,-122 500.1387,-86 645.8613,-86 645.8613,-122"/>
<text text-anchor="middle" x="573" y="-99.8" font-family="Times,serif" font-size="14.00" fill="#000000">TasksTableComponent</text>
</g>
<!-- TasksTableComponent&#45;&gt;TasksTableModule -->
<g id="edge3" class="edge">
<title>TasksTableComponent&#45;&gt;TasksTableModule</title>
<path fill="none" stroke="#000000" d="M524.5544,-122.1061C524.5544,-122.1061 524.5544,-140.991 524.5544,-140.991"/>
<polygon fill="#000000" stroke="#000000" points="521.0544,-140.9909 524.5544,-150.991 528.0544,-140.991 521.0544,-140.9909"/>
</g>
<!-- TasksButtonBarModule -->
<g id="node5" class="node">
<title>TasksButtonBarModule</title>
<polygon fill="#8dd3c7" stroke="#000000" points="476.0365,-122 473.0365,-126 452.0365,-126 449.0365,-122 325.9635,-122 325.9635,-86 476.0365,-86 476.0365,-122"/>
<text text-anchor="middle" x="401" y="-99.8" font-family="Times,serif" font-size="14.00" fill="#000000">TasksButtonBarModule</text>
</g>
<!-- TasksButtonBarModule&#45;&gt;TasksTableModule -->
<g id="edge4" class="edge">
<title>TasksButtonBarModule&#45;&gt;TasksTableModule</title>
<path fill="none" stroke="#000000" d="M450.6143,-122.1061C450.6143,-122.1061 450.6143,-140.991 450.6143,-140.991"/>
<polygon fill="#000000" stroke="#000000" points="447.1144,-140.9909 450.6143,-150.991 454.1144,-140.991 447.1144,-140.9909"/>
</g>
<!-- TasksButtonsModule -->
<g id="node6" class="node">
<title>TasksButtonsModule</title>
<polygon fill="#8dd3c7" stroke="#000000" points="307.7688,-122 304.7688,-126 283.7688,-126 280.7688,-122 172.2312,-122 172.2312,-86 307.7688,-86 307.7688,-122"/>
<text text-anchor="middle" x="240" y="-99.8" font-family="Times,serif" font-size="14.00" fill="#000000">TasksButtonsModule</text>
</g>
<!-- TasksButtonsModule&#45;&gt;TasksTableModule -->
<g id="edge5" class="edge">
<title>TasksButtonsModule&#45;&gt;TasksTableModule</title>
<path fill="none" stroke="#000000" d="M240,-122.0225C240,-139.3734 240,-163 240,-163 240,-163 414.6715,-163 414.6715,-163"/>
<polygon fill="#000000" stroke="#000000" points="414.6715,-166.5001 424.6715,-163 414.6714,-159.5001 414.6715,-166.5001"/>
</g>
<!-- TasksDialogModule -->
<g id="node7" class="node">
<title>TasksDialogModule</title>
<polygon fill="#8dd3c7" stroke="#000000" points="154.309,-122 151.309,-126 130.309,-126 127.309,-122 23.691,-122 23.691,-86 154.309,-86 154.309,-122"/>
<text text-anchor="middle" x="89" y="-99.8" font-family="Times,serif" font-size="14.00" fill="#000000">TasksDialogModule</text>
</g>
<!-- TasksDialogModule&#45;&gt;TasksTableModule -->
<g id="edge6" class="edge">
<title>TasksDialogModule&#45;&gt;TasksTableModule</title>
<path fill="none" stroke="#000000" d="M89,-122.2843C89,-143.3211 89,-175 89,-175 89,-175 414.8125,-175 414.8125,-175"/>
<polygon fill="#000000" stroke="#000000" points="414.8125,-178.5001 424.8125,-175 414.8125,-171.5001 414.8125,-178.5001"/>
</g>
</g>
</svg>
